<mxfile host="65bd71144e">
    <diagram id="J2t-LXjNG9rNmW884kaF" name="Page-1">
        <mxGraphModel dx="2209" dy="561" grid="1" gridSize="10" guides="1" tooltips="1" connect="1" arrows="1" fold="1" page="1" pageScale="1" pageWidth="827" pageHeight="1169" math="0" shadow="0">
            <root>
                <mxCell id="0"/>
                <mxCell id="1" parent="0"/>
                <mxCell id="16" value="" style="rounded=0;whiteSpace=wrap;html=1;fillColor=#3333FF;" parent="1" vertex="1">
                    <mxGeometry x="-260" y="5" width="260" height="315" as="geometry"/>
                </mxCell>
                <mxCell id="2" value="Clive" style="rounded=0;whiteSpace=wrap;html=1;" parent="1" vertex="1">
                    <mxGeometry x="240" y="95" width="370" height="50" as="geometry"/>
                </mxCell>
                <mxCell id="3" value="fast api" style="rounded=0;whiteSpace=wrap;html=1;" parent="1" vertex="1">
                    <mxGeometry x="140" y="310" width="120" height="60" as="geometry"/>
                </mxCell>
                <mxCell id="33" style="edgeStyle=none;html=1;entryX=0;entryY=0;entryDx=0;entryDy=52.5;entryPerimeter=0;" parent="1" source="4" target="7" edge="1">
                    <mxGeometry relative="1" as="geometry"/>
                </mxCell>
                <mxCell id="4" value="node api" style="rounded=0;whiteSpace=wrap;html=1;" parent="1" vertex="1">
                    <mxGeometry x="600" y="320" width="120" height="60" as="geometry"/>
                </mxCell>
                <mxCell id="6" value="user pull" style="shape=cylinder3;whiteSpace=wrap;html=1;boundedLbl=1;backgroundOutline=1;size=15;" parent="1" vertex="1">
                    <mxGeometry x="10" y="290" width="60" height="80" as="geometry"/>
                </mxCell>
                <mxCell id="7" value="user pull" style="shape=cylinder3;whiteSpace=wrap;html=1;boundedLbl=1;backgroundOutline=1;size=15;" parent="1" vertex="1">
                    <mxGeometry x="767" y="300" width="60" height="80" as="geometry"/>
                </mxCell>
                <mxCell id="8" value="" style="shape=cylinder3;whiteSpace=wrap;html=1;boundedLbl=1;backgroundOutline=1;size=15;" parent="1" vertex="1">
                    <mxGeometry x="385" y="495" width="106" height="90" as="geometry"/>
                </mxCell>
                <mxCell id="9" value="create session token will not be valid for 10 minutes" style="text;html=1;strokeColor=none;fillColor=none;align=center;verticalAlign=middle;whiteSpace=wrap;rounded=0;" parent="1" vertex="1">
                    <mxGeometry x="-230" y="20" width="210" height="30" as="geometry"/>
                </mxCell>
                <mxCell id="10" value="token generate with JWT encoding" style="text;html=1;strokeColor=none;fillColor=none;align=center;verticalAlign=middle;whiteSpace=wrap;rounded=0;" parent="1" vertex="1">
                    <mxGeometry x="-230" y="60" width="210" height="30" as="geometry"/>
                </mxCell>
                <mxCell id="11" value="token includes permission and expiry of operation" style="text;html=1;strokeColor=none;fillColor=none;align=center;verticalAlign=middle;whiteSpace=wrap;rounded=0;" parent="1" vertex="1">
                    <mxGeometry x="-230" y="100" width="210" height="30" as="geometry"/>
                </mxCell>
                <mxCell id="12" value="encrypted signiture of token is valid&amp;nbsp; for that session and user only with permission attached to it" style="text;html=1;strokeColor=none;fillColor=none;align=center;verticalAlign=middle;whiteSpace=wrap;rounded=0;" parent="1" vertex="1">
                    <mxGeometry x="-230" y="145" width="210" height="30" as="geometry"/>
                </mxCell>
                <mxCell id="13" value="clive engine will grants access to api call ( token is not replicatable or can not be saved in the code )&amp;nbsp;" style="text;html=1;strokeColor=none;fillColor=none;align=center;verticalAlign=middle;whiteSpace=wrap;rounded=0;" parent="1" vertex="1">
                    <mxGeometry x="-230" y="200" width="210" height="30" as="geometry"/>
                </mxCell>
                <mxCell id="14" value="access to protected api call can now pass condition" style="text;html=1;strokeColor=none;fillColor=none;align=center;verticalAlign=middle;whiteSpace=wrap;rounded=0;" parent="1" vertex="1">
                    <mxGeometry x="-235" y="240" width="210" height="30" as="geometry"/>
                </mxCell>
                <mxCell id="15" value="process repeated every 10 minutes" style="text;html=1;strokeColor=none;fillColor=none;align=center;verticalAlign=middle;whiteSpace=wrap;rounded=0;" parent="1" vertex="1">
                    <mxGeometry x="-230" y="280" width="210" height="30" as="geometry"/>
                </mxCell>
                <mxCell id="17" value="" style="shape=flexArrow;endArrow=classic;startArrow=classic;html=1;" parent="1" edge="1">
                    <mxGeometry width="100" height="100" relative="1" as="geometry">
                        <mxPoint x="180" y="270" as="sourcePoint"/>
                        <mxPoint x="290" y="150" as="targetPoint"/>
                    </mxGeometry>
                </mxCell>
                <mxCell id="18" value="based on a encrypted user pull not in request token" style="text;html=1;strokeColor=none;fillColor=none;align=center;verticalAlign=middle;whiteSpace=wrap;rounded=0;" parent="1" vertex="1">
                    <mxGeometry x="40" y="230" width="150" height="30" as="geometry"/>
                </mxCell>
                <mxCell id="19" value="jwt token created" style="text;html=1;strokeColor=none;fillColor=none;align=center;verticalAlign=middle;whiteSpace=wrap;rounded=0;" parent="1" vertex="1">
                    <mxGeometry x="270" y="200" width="90" height="30" as="geometry"/>
                </mxCell>
                <mxCell id="21" value="" style="shape=flexArrow;endArrow=classic;startArrow=classic;html=1;width=8;endSize=5.67;" parent="1" edge="1">
                    <mxGeometry width="100" height="100" relative="1" as="geometry">
                        <mxPoint x="74" y="339.5" as="sourcePoint"/>
                        <mxPoint x="134" y="339.5" as="targetPoint"/>
                    </mxGeometry>
                </mxCell>
                <mxCell id="22" value="user pull for session token" style="text;html=1;strokeColor=none;fillColor=none;align=center;verticalAlign=middle;whiteSpace=wrap;rounded=0;" parent="1" vertex="1">
                    <mxGeometry x="20" y="380" width="90" height="30" as="geometry"/>
                </mxCell>
                <mxCell id="23" value="" style="shape=flexArrow;endArrow=classic;startArrow=classic;html=1;" parent="1" edge="1">
                    <mxGeometry width="100" height="100" relative="1" as="geometry">
                        <mxPoint x="280" y="300" as="sourcePoint"/>
                        <mxPoint x="420" y="150" as="targetPoint"/>
                    </mxGeometry>
                </mxCell>
                <mxCell id="25" value="request to actual api call is now possible passin token" style="text;html=1;strokeColor=none;fillColor=none;align=center;verticalAlign=middle;whiteSpace=wrap;rounded=0;rotation=-45;" parent="1" vertex="1">
                    <mxGeometry x="300" y="250" width="130" height="30" as="geometry"/>
                </mxCell>
                <mxCell id="26" value="" style="shape=flexArrow;endArrow=classic;startArrow=classic;html=1;entryX=0;entryY=0;entryDx=0;entryDy=15;entryPerimeter=0;" parent="1" target="8" edge="1">
                    <mxGeometry width="100" height="100" relative="1" as="geometry">
                        <mxPoint x="260" y="380" as="sourcePoint"/>
                        <mxPoint x="370" y="510" as="targetPoint"/>
                    </mxGeometry>
                </mxCell>
                <mxCell id="27" value="api can make call and access data" style="text;html=1;strokeColor=none;fillColor=none;align=center;verticalAlign=middle;whiteSpace=wrap;rounded=0;rotation=45;" parent="1" vertex="1">
                    <mxGeometry x="270" y="400" width="140" height="30" as="geometry"/>
                </mxCell>
                <mxCell id="28" value="1" style="ellipse;whiteSpace=wrap;html=1;aspect=fixed;fillColor=#3333FF;" parent="1" vertex="1">
                    <mxGeometry x="210" y="150" width="40" height="40" as="geometry"/>
                </mxCell>
                <mxCell id="29" value="2" style="ellipse;whiteSpace=wrap;html=1;aspect=fixed;fillColor=#3333FF;" parent="1" vertex="1">
                    <mxGeometry x="345" y="150" width="40" height="40" as="geometry"/>
                </mxCell>
                <mxCell id="31" value="" style="shape=flexArrow;endArrow=classic;startArrow=classic;html=1;" parent="1" edge="1">
                    <mxGeometry width="100" height="100" relative="1" as="geometry">
                        <mxPoint x="620" y="310" as="sourcePoint"/>
                        <mxPoint x="490" y="150" as="targetPoint"/>
                    </mxGeometry>
                </mxCell>
                <mxCell id="32" value="" style="shape=flexArrow;endArrow=classic;startArrow=classic;html=1;" parent="1" edge="1">
                    <mxGeometry width="100" height="100" relative="1" as="geometry">
                        <mxPoint x="710" y="310" as="sourcePoint"/>
                        <mxPoint x="580" y="150" as="targetPoint"/>
                    </mxGeometry>
                </mxCell>
                <mxCell id="34" value="" style="shape=flexArrow;endArrow=classic;startArrow=classic;html=1;" parent="1" edge="1">
                    <mxGeometry width="100" height="100" relative="1" as="geometry">
                        <mxPoint x="490" y="510" as="sourcePoint"/>
                        <mxPoint x="630" y="390" as="targetPoint"/>
                    </mxGeometry>
                </mxCell>
                <mxCell id="35" value="1" style="ellipse;whiteSpace=wrap;html=1;aspect=fixed;fillColor=#3333FF;" parent="1" vertex="1">
                    <mxGeometry x="621" y="151" width="40" height="40" as="geometry"/>
                </mxCell>
                <mxCell id="37" value="2" style="ellipse;whiteSpace=wrap;html=1;aspect=fixed;fillColor=#3333FF;" parent="1" vertex="1">
                    <mxGeometry x="520" y="150" width="40" height="40" as="geometry"/>
                </mxCell>
                <mxCell id="38" value="Tokens will expire and can not be retrieved or saved in any way.&amp;nbsp; they rotate forever and there is no way to create one manually and pass it for testing.&amp;nbsp; All tokens are created by our own engine" style="ellipse;whiteSpace=wrap;html=1;aspect=fixed;fillColor=#3333FF;" parent="1" vertex="1">
                    <mxGeometry x="370" y="250" width="200" height="200" as="geometry"/>
                </mxCell>
                <mxCell id="39" value="Clive JWT token rotation every 10 minutes" style="rounded=1;whiteSpace=wrap;html=1;fillColor=#3333FF;" parent="1" vertex="1">
                    <mxGeometry x="310" width="240" height="60" as="geometry"/>
                </mxCell>
            </root>
        </mxGraphModel>
    </diagram>
</mxfile>